<?xml version="1.0" standalone="no"?>
<!DOCTYPE svg PUBLIC "-//W3C//DTD SVG 20010904//EN"
 "http://www.w3.org/TR/2001/REC-SVG-20010904/DTD/svg10.dtd">
<svg version="1.0" xmlns="http://www.w3.org/2000/svg"
 width="810.000000pt" height="818.000000pt" viewBox="0 0 810.000000 818.000000"
 preserveAspectRatio="xMidYMid meet">

<g transform="translate(0.000000,818.000000) scale(0.100000,-0.100000)"
fill="#000000" stroke="none">
<path d="M4045 6905 c-96 -17 -427 -120 -542 -168 -120 -51 -324 -176 -449
-275 -128 -103 -334 -310 -432 -437 -39 -49 -104 -127 -145 -173 -51 -57 -96
-122 -143 -209 -38 -69 -78 -133 -88 -142 -41 -34 -132 -144 -171 -206 -39
-63 -93 -185 -111 -250 -8 -27 -14 -79 -14 -115 0 -36 -5 -105 -10 -153 -8
-69 -7 -110 5 -190 8 -56 23 -151 31 -212 9 -60 31 -164 49 -230 l33 -120 -39
-33 c-31 -26 -44 -49 -61 -105 -20 -63 -23 -92 -22 -232 1 -111 8 -201 23
-295 40 -248 60 -295 254 -585 136 -202 235 -294 318 -295 25 0 28 -5 54 -107
47 -184 66 -246 97 -318 47 -108 213 -352 355 -521 189 -225 303 -353 390
-441 114 -116 184 -157 328 -192 172 -42 223 -46 520 -46 313 0 405 10 566 61
148 47 208 93 418 329 276 310 502 609 583 770 33 64 90 243 118 367 20 89 24
98 44 98 106 0 213 112 428 451 124 194 172 396 173 724 0 220 -12 272 -77
330 l-42 38 37 151 c56 235 85 429 92 620 2 56 6 147 10 201 5 76 1 137 -15
255 -32 238 -38 266 -80 369 -22 53 -51 137 -65 186 -15 50 -37 108 -49 130
-13 22 -47 85 -75 140 -60 118 -108 180 -199 253 -86 69 -340 195 -447 222
-96 24 -410 50 -612 50 l-142 0 -34 53 c-67 103 -174 186 -306 236 -61 23 -80
25 -271 27 -142 2 -229 -1 -285 -11z m523 -1116 c81 -6 192 -19 247 -30 55
-10 110 -19 123 -19 13 0 38 -11 55 -24 65 -49 187 -107 303 -145 65 -22 142
-51 169 -65 28 -14 56 -26 62 -26 26 0 183 -122 223 -172 93 -117 117 -193
130 -413 13 -204 35 -341 75 -460 42 -124 70 -274 95 -522 l20 -192 -26 -138
c-141 -766 -324 -1525 -406 -1687 -46 -90 -233 -325 -472 -591 -208 -231 -247
-259 -435 -300 -159 -35 -263 -44 -506 -40 -291 4 -466 34 -601 103 -107 55
-665 700 -724 838 -92 213 -242 836 -392 1624 -35 187 -35 206 -7 455 25 223
51 357 84 440 14 35 34 115 44 177 22 127 46 427 37 462 -8 32 20 132 51 186
58 99 255 265 403 340 25 12 60 36 78 51 18 16 39 29 46 29 7 0 55 16 107 35
66 24 133 39 224 51 72 9 168 22 215 29 109 16 584 18 778 4z m-2404 -1903
c53 -22 105 -75 137 -139 17 -32 29 -61 27 -63 -2 -2 -20 16 -40 39 -51 62
-136 117 -181 119 -42 1 -46 9 -17 38 24 24 30 24 74 6z m4284 -2 c24 -17 31
-50 8 -41 -32 13 -93 -20 -163 -87 -40 -38 -73 -73 -73 -78 0 -5 29 20 64 55
69 69 117 97 164 97 38 0 42 -13 42 -157 0 -226 -52 -486 -122 -607 -62 -106
-168 -263 -237 -348 -61 -76 -107 -108 -155 -108 -30 0 -32 9 -16 110 16 101
17 103 53 97 51 -7 90 10 149 66 60 58 119 161 157 276 35 107 34 141 -1 41
-34 -96 -89 -203 -129 -250 -17 -20 -19 -21 -14 -5 4 11 9 47 11 80 l3 60 -8
-50 c-9 -57 -49 -141 -80 -169 -17 -16 -109 -42 -117 -33 -2 2 8 64 22 138 20
110 39 168 101 322 42 103 81 187 88 187 20 0 58 -81 59 -124 0 -44 -16 -83
-89 -211 -49 -87 -80 -174 -67 -187 5 -5 9 -2 9 7 0 24 55 135 65 129 4 -3 8
2 8 10 0 8 20 56 45 107 49 100 55 145 31 204 -8 19 -26 46 -39 59 l-25 24 32
62 c36 72 98 156 111 153 24 -5 30 -160 11 -253 -3 -14 3 0 14 30 23 67 26
174 5 214 -8 15 -15 29 -15 31 0 11 66 26 93 21 23 -4 28 -3 17 4 -28 18 -76
11 -117 -19 -73 -53 -159 -192 -240 -390 -55 -135 -47 -75 13 95 47 135 65
174 89 194 8 7 13 21 10 30 -10 32 56 141 110 182 27 20 58 39 70 41 11 2 22
5 25 6 3 0 16 -6 28 -15z m-4272 -80 c54 -36 88 -69 143 -139 54 -69 60 -81
111 -230 54 -156 61 -216 10 -85 -75 193 -187 367 -261 405 -30 16 -85 20 -93
7 -2 -4 12 -6 32 -4 21 2 45 -3 55 -10 17 -13 17 -16 1 -53 -18 -44 -15 -137
6 -208 16 -55 20 -42 8 28 -10 61 -3 170 11 194 11 17 81 -69 122 -151 l30
-59 -34 -40 c-33 -38 -47 -75 -47 -124 0 -12 22 -66 49 -121 40 -82 46 -104
39 -124 -10 -25 -6 -92 8 -140 6 -22 3 -20 -21 10 -41 54 -93 163 -131 274
-19 56 -32 85 -28 66 13 -71 72 -240 107 -302 41 -74 145 -177 179 -179 13 -1
39 -2 58 -3 l35 -1 17 -94 c11 -57 15 -98 9 -104 -5 -5 -27 -6 -50 -2 -34 6
-52 18 -102 73 -63 69 -208 278 -273 394 -41 74 -77 204 -97 348 -14 103 -18
354 -7 383 11 26 68 22 114 -9z m380 -579 c101 -507 220 -1004 288 -1202 14
-40 23 -73 21 -73 -9 0 -70 108 -96 169 -44 105 -114 389 -159 645 -23 125
-65 350 -94 500 -43 217 -53 283 -48 331 l5 60 14 -75 c7 -41 38 -201 69 -355z
m3523 334 c1 -19 -19 -135 -44 -258 -24 -122 -67 -347 -95 -499 -77 -429 -140
-655 -215 -782 -25 -41 -45 -71 -45 -67 0 4 18 67 41 140 80 263 183 704 288
1241 28 142 51 268 52 280 0 20 1 20 9 1 5 -11 9 -36 9 -56z m-3645 -259 c61
-152 79 -210 100 -321 14 -75 26 -139 26 -143 0 -9 -78 3 -103 16 -51 26 -112
182 -90 230 9 20 12 17 42 -44 19 -39 30 -72 26 -80 -6 -10 -5 -10 5 -1 20 19
-1 79 -80 223 -66 120 -74 142 -71 201 1 24 58 116 66 107 2 -2 37 -86 79
-188z"/>
<path d="M3128 4030 c-32 -5 -145 -30 -252 -55 -107 -25 -201 -45 -209 -45
-26 0 -36 -111 -17 -182 6 -20 28 -59 49 -86 53 -66 66 -94 86 -187 26 -118
112 -381 147 -448 77 -144 260 -229 498 -229 201 0 308 35 420 139 115 106
212 280 262 471 33 129 58 186 87 202 11 5 44 10 74 10 91 0 113 -30 158 -215
41 -170 155 -373 266 -475 104 -96 222 -133 413 -132 244 1 436 92 506 239 36
77 106 294 140 432 25 103 32 120 80 183 58 77 68 110 62 212 l-3 59 -210 48
c-274 63 -350 73 -515 66 -157 -7 -326 -33 -530 -82 -313 -75 -446 -74 -760 5
-249 63 -594 95 -752 70z m766 -256 c16 -42 1 -44 -374 -44 -197 0 -365 3
-374 6 -16 6 -22 35 -9 47 3 4 174 7 379 7 334 0 372 -2 378 -16z m1410 -177
c9 -15 7 -21 -8 -33 -24 -17 -256 -20 -287 -4 -21 12 -26 46 -6 54 6 2 75 4
151 3 122 -2 140 -4 150 -20z m-1324 -332 c0 -2 -5 -16 -12 -30 -9 -20 -18
-25 -50 -25 -40 0 -56 16 -44 45 4 11 20 15 56 15 27 0 50 -2 50 -5z m614 -11
c3 -9 2 -23 -3 -31 -6 -12 -10 -9 -19 16 -9 25 -8 31 2 31 8 0 17 -7 20 -16z"/>
<path d="M6351 3314 c0 -11 3 -14 6 -6 3 7 2 16 -1 19 -3 4 -6 -2 -5 -13z"/>
</g>
</svg>
